<svg xmlns="http://www.w3.org/2000/svg" xmlns:xlink="http://www.w3.org/1999/xlink" width="480" zoomAndPan="magnify" viewBox="0 0 360 359.999987" height="480" preserveAspectRatio="xMidYMid meet" version="1.0"><defs><clipPath id="4bd763dc08"><path d="M 126.929688 123.242188 L 233.429688 123.242188 L 233.429688 236.492188 L 126.929688 236.492188 Z M 126.929688 123.242188 " clip-rule="nonzero"/></clipPath></defs><g clip-path="url(#4bd763dc08)"><path fill="#32be8f" d="M 230.695312 232.035156 L 221.261719 232.035156 L 221.261719 224.960938 L 228.335938 224.960938 C 229.636719 224.960938 230.695312 223.902344 230.695312 222.601562 L 230.695312 158.941406 C 230.695312 158.109375 230.257812 157.34375 229.550781 156.917969 C 217.050781 149.421875 217.621094 149.71875 217.175781 149.59375 C 217.085938 149.570312 216.996094 149.550781 216.902344 149.535156 C 216.871094 149.53125 216.84375 149.53125 216.8125 149.527344 C 216.609375 149.503906 216.40625 149.507812 216.21875 149.535156 C 215.964844 149.570312 208.441406 150.828125 202.398438 151.832031 L 202.398438 135.359375 C 202.398438 134.644531 202.074219 133.96875 201.515625 133.519531 C 188.664062 123.246094 189.6875 124.027344 189.371094 123.859375 C 188.988281 123.652344 188.566406 123.558594 188.164062 123.574219 C 188.09375 123.578125 188.023438 123.585938 187.957031 123.59375 C 187.929688 123.597656 187.785156 123.605469 187.550781 123.679688 C 187.332031 123.746094 177.113281 128.417969 158.980469 136.671875 C 158.140625 137.054688 157.601562 137.894531 157.601562 138.820312 L 157.601562 155.535156 C 141.097656 149.351562 141.875 149.625 141.582031 149.5625 C 141.28125 149.496094 140.953125 149.492188 140.640625 149.554688 C 140.609375 149.5625 140.578125 149.566406 140.546875 149.574219 C 140.347656 149.621094 140.175781 149.683594 139.976562 149.789062 C 139.949219 149.804688 139.917969 149.824219 139.890625 149.84375 C 139.84375 149.871094 139.796875 149.894531 139.753906 149.925781 C 139.738281 149.9375 139.726562 149.949219 139.714844 149.957031 C 139.542969 150.078125 132.597656 155.292969 130.25 157.054688 C 129.65625 157.5 129.304688 158.199219 129.304688 158.941406 L 129.304688 222.601562 C 129.304688 223.902344 130.363281 224.960938 131.664062 224.960938 L 134.023438 224.960938 L 134.023438 232.035156 L 129.304688 232.035156 C 128.003906 232.035156 126.949219 233.089844 126.949219 234.390625 C 126.949219 235.691406 128.003906 236.75 129.304688 236.75 C 130.667969 236.75 229.304688 236.75 230.695312 236.75 C 231.996094 236.75 233.050781 235.691406 233.050781 234.390625 C 233.050781 233.089844 231.996094 232.035156 230.695312 232.035156 Z M 216.546875 232.035156 L 209.472656 232.035156 L 209.472656 224.960938 L 216.546875 224.960938 Z M 225.976562 220.242188 L 218.90625 220.242188 L 218.90625 156.03125 L 225.976562 160.273438 Z M 214.1875 220.242188 L 209.472656 220.242188 L 209.472656 210.8125 C 209.472656 209.511719 208.417969 208.453125 207.117188 208.453125 L 190.609375 208.453125 L 190.609375 158.578125 L 214.1875 154.648438 Z M 197.683594 152.621094 L 190.609375 153.796875 L 190.609375 130.835938 L 197.683594 136.492188 Z M 162.316406 140.335938 L 185.894531 129.59375 C 185.894531 132.699219 185.894531 204.746094 185.894531 208.453125 L 169.390625 208.453125 C 168.085938 208.453125 167.03125 209.511719 167.03125 210.8125 L 167.03125 220.246094 L 162.316406 220.246094 C 162.316406 216.421875 162.316406 144.113281 162.316406 140.335938 Z M 157.601562 220.242188 L 143.453125 220.242188 L 143.453125 155.269531 L 157.601562 160.574219 Z M 134.023438 160.117188 L 138.738281 156.582031 L 138.738281 220.242188 C 137.089844 220.242188 135.671875 220.242188 134.023438 220.242188 Z M 138.738281 224.960938 C 144.464844 224.960938 161.289062 224.960938 167.03125 224.960938 L 167.03125 232.035156 L 138.738281 232.035156 Z M 171.746094 232.035156 C 171.746094 229.75 171.746094 215.46875 171.746094 213.171875 C 175.738281 213.171875 200.738281 213.171875 204.757812 213.171875 C 204.757812 215.453125 204.757812 229.738281 204.757812 232.035156 Z M 171.746094 232.035156 " fill-opacity="1" fill-rule="nonzero"/></g><path fill="#32be8f" d="M 167.03125 142.433594 L 171.746094 142.433594 L 171.746094 151.867188 L 167.03125 151.867188 Z M 167.03125 142.433594 " fill-opacity="1" fill-rule="nonzero"/><path fill="#32be8f" d="M 174.105469 142.433594 L 178.820312 142.433594 L 178.820312 151.867188 L 174.105469 151.867188 Z M 174.105469 142.433594 " fill-opacity="1" fill-rule="nonzero"/><path fill="#32be8f" d="M 167.03125 154.222656 L 171.746094 154.222656 L 171.746094 163.65625 L 167.03125 163.65625 Z M 167.03125 154.222656 " fill-opacity="1" fill-rule="nonzero"/><path fill="#32be8f" d="M 174.105469 154.222656 L 178.820312 154.222656 L 178.820312 163.65625 L 174.105469 163.65625 Z M 174.105469 154.222656 " fill-opacity="1" fill-rule="nonzero"/><path fill="#32be8f" d="M 167.03125 166.011719 L 171.746094 166.011719 L 171.746094 175.445312 L 167.03125 175.445312 Z M 167.03125 166.011719 " fill-opacity="1" fill-rule="nonzero"/><path fill="#32be8f" d="M 174.105469 166.011719 L 178.820312 166.011719 L 178.820312 175.445312 L 174.105469 175.445312 Z M 174.105469 166.011719 " fill-opacity="1" fill-rule="nonzero"/><path fill="#32be8f" d="M 167.03125 177.800781 L 171.746094 177.800781 L 171.746094 187.234375 L 167.03125 187.234375 Z M 167.03125 177.800781 " fill-opacity="1" fill-rule="nonzero"/><path fill="#32be8f" d="M 148.167969 166.011719 L 152.882812 166.011719 L 152.882812 175.445312 L 148.167969 175.445312 Z M 148.167969 166.011719 " fill-opacity="1" fill-rule="nonzero"/><path fill="#32be8f" d="M 148.167969 177.800781 L 152.882812 177.800781 L 152.882812 187.234375 L 148.167969 187.234375 Z M 148.167969 177.800781 " fill-opacity="1" fill-rule="nonzero"/><path fill="#32be8f" d="M 148.167969 189.59375 L 152.882812 189.59375 L 152.882812 199.023438 L 148.167969 199.023438 Z M 148.167969 189.59375 " fill-opacity="1" fill-rule="nonzero"/><path fill="#32be8f" d="M 148.167969 201.382812 L 152.882812 201.382812 L 152.882812 210.8125 L 148.167969 210.8125 Z M 148.167969 201.382812 " fill-opacity="1" fill-rule="nonzero"/><path fill="#32be8f" d="M 174.105469 177.800781 L 178.820312 177.800781 L 178.820312 187.234375 L 174.105469 187.234375 Z M 174.105469 177.800781 " fill-opacity="1" fill-rule="nonzero"/><path fill="#32be8f" d="M 192.96875 161.296875 L 197.683594 161.296875 L 197.683594 168.371094 L 192.96875 168.371094 Z M 192.96875 161.296875 " fill-opacity="1" fill-rule="nonzero"/><path fill="#32be8f" d="M 200.042969 161.296875 L 204.757812 161.296875 L 204.757812 168.371094 L 200.042969 168.371094 Z M 200.042969 161.296875 " fill-opacity="1" fill-rule="nonzero"/><path fill="#32be8f" d="M 207.117188 161.296875 L 211.832031 161.296875 L 211.832031 168.371094 L 207.117188 168.371094 Z M 207.117188 161.296875 " fill-opacity="1" fill-rule="nonzero"/><path fill="#32be8f" d="M 192.96875 170.730469 L 197.683594 170.730469 L 197.683594 177.800781 L 192.96875 177.800781 Z M 192.96875 170.730469 " fill-opacity="1" fill-rule="nonzero"/><path fill="#32be8f" d="M 200.042969 170.730469 L 204.757812 170.730469 L 204.757812 177.800781 L 200.042969 177.800781 Z M 200.042969 170.730469 " fill-opacity="1" fill-rule="nonzero"/><path fill="#32be8f" d="M 207.117188 170.730469 L 211.832031 170.730469 L 211.832031 177.800781 L 207.117188 177.800781 Z M 207.117188 170.730469 " fill-opacity="1" fill-rule="nonzero"/><path fill="#32be8f" d="M 192.96875 180.160156 L 197.683594 180.160156 L 197.683594 187.234375 L 192.96875 187.234375 Z M 192.96875 180.160156 " fill-opacity="1" fill-rule="nonzero"/><path fill="#32be8f" d="M 200.042969 180.160156 L 204.757812 180.160156 L 204.757812 187.234375 L 200.042969 187.234375 Z M 200.042969 180.160156 " fill-opacity="1" fill-rule="nonzero"/><path fill="#32be8f" d="M 207.117188 180.160156 L 211.832031 180.160156 L 211.832031 187.234375 L 207.117188 187.234375 Z M 207.117188 180.160156 " fill-opacity="1" fill-rule="nonzero"/><path fill="#32be8f" d="M 192.96875 189.59375 L 197.683594 189.59375 L 197.683594 196.664062 L 192.96875 196.664062 Z M 192.96875 189.59375 " fill-opacity="1" fill-rule="nonzero"/><path fill="#32be8f" d="M 200.042969 189.59375 L 204.757812 189.59375 L 204.757812 196.664062 L 200.042969 196.664062 Z M 200.042969 189.59375 " fill-opacity="1" fill-rule="nonzero"/><path fill="#32be8f" d="M 192.96875 199.023438 L 197.683594 199.023438 L 197.683594 206.097656 L 192.96875 206.097656 Z M 192.96875 199.023438 " fill-opacity="1" fill-rule="nonzero"/><path fill="#32be8f" d="M 167.03125 189.59375 L 171.746094 189.59375 L 171.746094 199.023438 L 167.03125 199.023438 Z M 167.03125 189.59375 " fill-opacity="1" fill-rule="nonzero"/><path fill="#32be8f" d="M 176.464844 215.527344 L 200.042969 215.527344 L 200.042969 220.242188 L 176.464844 220.242188 Z M 176.464844 215.527344 " fill-opacity="1" fill-rule="nonzero"/><path fill="#32be8f" d="M 176.464844 222.601562 L 200.042969 222.601562 L 200.042969 227.316406 L 176.464844 227.316406 Z M 176.464844 222.601562 " fill-opacity="1" fill-rule="nonzero"/></svg>