<svg xmlns="http://www.w3.org/2000/svg" xmlns:xlink="http://www.w3.org/1999/xlink" width="940" zoomAndPan="magnify" viewBox="0 0 705 591.000005" height="788" preserveAspectRatio="xMidYMid meet" version="1.0"><defs><g/><clipPath id="1a7556ad62"><path d="M 177.5 134.375 L 468.113281 134.375 L 468.113281 427 L 177.5 427 Z M 177.5 134.375 " clip-rule="nonzero"/></clipPath><clipPath id="17767cb507"><path d="M 220.925781 134.375 L 424.683594 134.375 C 436.203125 134.375 447.25 138.949219 455.394531 147.09375 C 463.535156 155.238281 468.113281 166.285156 468.113281 177.800781 L 468.113281 382.851562 C 468.113281 394.367188 463.535156 405.414062 455.394531 413.558594 C 447.25 421.703125 436.203125 426.277344 424.683594 426.277344 L 220.925781 426.277344 C 209.410156 426.277344 198.363281 421.703125 190.21875 413.558594 C 182.074219 405.414062 177.5 394.367188 177.5 382.851562 L 177.5 177.800781 C 177.5 166.285156 182.074219 155.238281 190.21875 147.09375 C 198.363281 138.949219 209.410156 134.375 220.925781 134.375 Z M 220.925781 134.375 " clip-rule="nonzero"/></clipPath><clipPath id="6bc8671a79"><path d="M 177.5 134.375 L 468.007812 134.375 L 468.007812 426.378906 L 177.5 426.378906 Z M 177.5 134.375 " clip-rule="nonzero"/></clipPath><clipPath id="d6073f071a"><path d="M 220.925781 134.378906 L 424.675781 134.378906 C 436.195312 134.378906 447.238281 138.953125 455.382812 147.097656 C 463.527344 155.242188 468.101562 166.285156 468.101562 177.804688 L 468.101562 382.847656 C 468.101562 394.363281 463.527344 405.410156 455.382812 413.550781 C 447.238281 421.695312 436.195312 426.269531 424.675781 426.269531 L 220.925781 426.269531 C 209.410156 426.269531 198.363281 421.695312 190.21875 413.550781 C 182.074219 405.410156 177.5 394.363281 177.5 382.847656 L 177.5 177.804688 C 177.5 166.285156 182.074219 155.242188 190.21875 147.097656 C 198.363281 138.953125 209.410156 134.378906 220.925781 134.378906 Z M 220.925781 134.378906 " clip-rule="nonzero"/></clipPath><clipPath id="a081e0087c"><path d="M 204.804688 177 L 440.65625 177 L 440.65625 412.851562 L 204.804688 412.851562 Z M 204.804688 177 " clip-rule="nonzero"/></clipPath></defs><g clip-path="url(#1a7556ad62)"><g clip-path="url(#17767cb507)"><path fill="#ffffff" d="M 177.5 134.375 L 468.113281 134.375 L 468.113281 426.121094 L 177.5 426.121094 Z M 177.5 134.375 " fill-opacity="1" fill-rule="nonzero"/></g></g><g clip-path="url(#6bc8671a79)"><g clip-path="url(#d6073f071a)"><path stroke-linecap="butt" transform="matrix(0.748733, 0, 0, 0.748733, 177.500224, 134.378026)" fill="none" stroke-linejoin="miter" d="M 57.998716 0.00117519 L 330.125065 0.00117519 C 345.510429 0.00117519 360.259301 6.110453 371.137051 16.988203 C 382.014801 27.865953 388.124079 42.614826 388.124079 58.00019 L 388.124079 331.853414 C 388.124079 347.233561 382.014801 361.987651 371.137051 372.860184 C 360.259301 383.737934 345.510429 389.847212 330.125065 389.847212 L 57.998716 389.847212 C 42.618569 389.847212 27.864479 383.737934 16.986729 372.860184 C 6.108979 361.987651 -0.000298966 347.233561 -0.000298966 331.853414 L -0.000298966 58.00019 C -0.000298966 42.614826 6.108979 27.865953 16.986729 16.988203 C 27.864479 6.110453 42.618569 0.00117519 57.998716 0.00117519 Z M 57.998716 0.00117519 " stroke="#45a049" stroke-width="10" stroke-opacity="1" stroke-miterlimit="4"/></g></g><path fill="#45a049" d="M 322.089844 263.761719 L 271.980469 246.65625 C 271.355469 246.445312 270.835938 245.957031 270.609375 245.285156 C 270.222656 244.140625 270.835938 242.898438 271.980469 242.511719 L 322.089844 225.40625 C 322.53125 225.253906 323.023438 225.242188 323.496094 225.40625 L 373.625 242.511719 C 374.246094 242.722656 374.765625 243.210938 374.996094 243.882812 C 375.382812 245.023438 374.769531 246.265625 373.625 246.65625 L 323.496094 263.761719 C 323.054688 263.910156 322.566406 263.921875 322.089844 263.761719 " fill-opacity="1" fill-rule="nonzero"/><path fill="#45a049" d="M 271.742188 245 C 271.742188 243.785156 272.726562 242.804688 273.9375 242.804688 C 275.148438 242.804688 276.128906 243.785156 276.128906 245 L 276.128906 276.722656 C 276.128906 277.933594 275.148438 278.914062 273.9375 278.914062 C 272.726562 278.914062 271.742188 277.933594 271.742188 276.722656 L 271.742188 245 " fill-opacity="1" fill-rule="nonzero"/><path fill="#45a049" d="M 276.035156 276.097656 L 281.1875 293.378906 C 281.273438 293.613281 281.320312 293.863281 281.320312 294.125 C 281.320312 295.335938 280.335938 296.316406 279.125 296.316406 L 268.746094 296.316406 L 268.746094 296.3125 C 268.539062 296.3125 268.332031 296.285156 268.121094 296.222656 C 266.960938 295.875 266.304688 294.65625 266.648438 293.5 L 271.828125 276.125 C 272.027344 275.429688 272.566406 274.84375 273.3125 274.625 C 274.46875 274.28125 275.691406 274.9375 276.035156 276.097656 " fill-opacity="1" fill-rule="nonzero"/><path fill="#45a049" d="M 262.746094 363.308594 C 263.507812 357.6875 264.667969 351.839844 266.828125 346.574219 C 268.515625 342.457031 270.785156 338.816406 273.988281 335.707031 C 277.359375 332.433594 281.40625 330.082031 285.644531 328.109375 C 288.089844 326.972656 290.597656 325.957031 293.117188 324.988281 C 296 323.882812 298.90625 322.832031 301.808594 321.78125 C 302.195312 321.640625 302.582031 321.503906 302.96875 321.363281 L 303.882812 321.03125 L 304.417969 321.84375 C 304.425781 321.863281 304.441406 321.878906 304.453125 321.898438 L 321.796875 346.527344 C 322.1875 347.082031 322.953125 347.214844 323.507812 346.824219 C 323.632812 346.734375 323.738281 346.617188 323.828125 346.492188 L 341.167969 321.871094 C 341.175781 321.863281 341.183594 321.855469 341.1875 321.84375 L 341.722656 321.035156 L 342.632812 321.363281 C 343.722656 321.757812 344.816406 322.148438 345.90625 322.539062 C 350.722656 324.253906 355.644531 325.964844 360.296875 328.082031 C 364.179688 329.851562 367.894531 331.957031 371.050781 334.855469 C 374.421875 337.949219 376.792969 341.617188 378.558594 345.820312 C 380.855469 351.296875 382.066406 357.449219 382.859375 363.308594 L 383.046875 364.703125 L 262.554688 364.703125 L 262.746094 363.308594 " fill-opacity="1" fill-rule="evenodd"/><path fill="#45a049" d="M 353.589844 265.925781 C 353.238281 274.738281 349.933594 292.007812 342.96875 304.535156 C 337.992188 313.480469 331.304688 320.132812 322.828125 320.144531 C 314.359375 320.15625 307.644531 313.5 302.640625 304.527344 C 295.703125 292.09375 292.363281 274.972656 292.011719 265.992188 L 296.378906 265.820312 C 296.710938 274.335938 299.867188 290.585938 306.460938 302.402344 C 310.742188 310.085938 316.253906 315.785156 322.828125 315.777344 C 329.402344 315.769531 334.890625 310.070312 339.148438 302.410156 C 345.769531 290.503906 348.886719 274.113281 349.222656 265.753906 L 353.589844 265.925781 " fill-opacity="1" fill-rule="nonzero"/><path fill="#45a049" d="M 292.011719 265.632812 C 292.011719 263.390625 292.058594 261.148438 292.105469 258.902344 C 292.125 257.890625 292.144531 256.875 292.160156 255.863281 L 321.382812 265.835938 C 322.300781 266.148438 323.289062 266.148438 324.203125 265.835938 L 353.441406 255.859375 C 353.457031 256.867188 353.476562 257.878906 353.5 258.886719 C 353.542969 261.066406 353.585938 263.25 353.59375 265.429688 L 353.59375 265.96875 L 353.171875 266.296875 C 351.050781 267.949219 348.652344 269.398438 346.261719 270.617188 C 342.125 272.726562 337.6875 274.265625 333.132812 275.164062 C 318.742188 277.996094 304.851562 274.160156 292.53125 266.570312 L 292.007812 266.246094 L 292.011719 265.632812 " fill-opacity="1" fill-rule="evenodd"/><g clip-path="url(#a081e0087c)"><path fill="#45a049" d="M 322.800781 177 C 387.96875 177 440.796875 229.828125 440.796875 294.996094 C 440.796875 360.164062 387.96875 412.992188 322.800781 412.992188 C 257.632812 412.992188 204.804688 360.164062 204.804688 294.996094 C 204.804688 229.828125 257.632812 177 322.800781 177 Z M 322.800781 190.070312 C 264.851562 190.070312 217.875 237.046875 217.875 294.996094 C 217.875 352.945312 264.851562 399.921875 322.800781 399.921875 C 380.75 399.921875 427.726562 352.945312 427.726562 294.996094 C 427.726562 237.046875 380.75 190.070312 322.800781 190.070312 " fill-opacity="1" fill-rule="evenodd"/></g><g fill="#45a049" fill-opacity="1"><g transform="translate(210.701961, 169.51319)"><g><path d="M 12.90625 -19.296875 C 14.101562 -19.296875 15.164062 -19.019531 16.09375 -18.46875 C 17.03125 -17.914062 17.757812 -17.15625 18.28125 -16.1875 C 18.8125 -15.226562 19.078125 -14.148438 19.078125 -12.953125 L 19.078125 -12.59375 C 19.078125 -11.394531 18.8125 -10.304688 18.28125 -9.328125 C 17.757812 -8.359375 17.03125 -7.597656 16.09375 -7.046875 C 15.164062 -6.492188 14.101562 -6.21875 12.90625 -6.21875 L 8.28125 -6.21875 L 8.28125 0 L 2.078125 0 L 2.078125 -19.296875 Z M 8.28125 -10.734375 L 10.828125 -10.734375 C 11.484375 -10.734375 11.972656 -10.898438 12.296875 -11.234375 C 12.628906 -11.578125 12.796875 -12.039062 12.796875 -12.625 L 12.796875 -12.84375 C 12.796875 -13.445312 12.628906 -13.910156 12.296875 -14.234375 C 11.972656 -14.554688 11.484375 -14.71875 10.828125 -14.71875 L 8.28125 -14.71875 Z M 8.28125 -10.734375 "/></g></g></g><g fill="#45a049" fill-opacity="1"><g transform="translate(230.94009, 169.51319)"><g><path d="M 20.390625 -13.375 C 20.390625 -12.195312 20.070312 -11.128906 19.4375 -10.171875 C 18.800781 -9.222656 17.875 -8.523438 16.65625 -8.078125 L 20.953125 0 L 14 0 L 10.578125 -7.046875 L 8.28125 -7.046875 L 8.28125 0 L 2.078125 0 L 2.078125 -19.296875 L 13.890625 -19.296875 C 15.265625 -19.296875 16.441406 -19.03125 17.421875 -18.5 C 18.410156 -17.96875 19.148438 -17.25 19.640625 -16.34375 C 20.140625 -15.4375 20.390625 -14.445312 20.390625 -13.375 Z M 14.078125 -13.125 C 14.078125 -13.632812 13.90625 -14.054688 13.5625 -14.390625 C 13.226562 -14.722656 12.820312 -14.890625 12.34375 -14.890625 L 8.28125 -14.890625 L 8.28125 -11.328125 L 12.34375 -11.328125 C 12.820312 -11.328125 13.226562 -11.5 13.5625 -11.84375 C 13.90625 -12.195312 14.078125 -12.625 14.078125 -13.125 Z M 14.078125 -13.125 "/></g></g></g><g fill="#45a049" fill-opacity="1"><g transform="translate(252.747935, 169.51319)"><g><path d="M 11.671875 -19.625 C 14.992188 -19.625 17.5625 -18.773438 19.375 -17.078125 C 21.1875 -15.378906 22.09375 -12.898438 22.09375 -9.640625 C 22.09375 -6.390625 21.1875 -3.910156 19.375 -2.203125 C 17.5625 -0.503906 14.992188 0.34375 11.671875 0.34375 C 8.335938 0.34375 5.769531 -0.5 3.96875 -2.1875 C 2.164062 -3.882812 1.265625 -6.367188 1.265625 -9.640625 C 1.265625 -12.921875 2.164062 -15.40625 3.96875 -17.09375 C 5.769531 -18.78125 8.335938 -19.625 11.671875 -19.625 Z M 11.671875 -15 C 10.335938 -15 9.320312 -14.597656 8.625 -13.796875 C 7.9375 -12.992188 7.59375 -11.910156 7.59375 -10.546875 L 7.59375 -8.75 C 7.59375 -7.382812 7.9375 -6.300781 8.625 -5.5 C 9.320312 -4.695312 10.335938 -4.296875 11.671875 -4.296875 C 12.992188 -4.296875 14.003906 -4.695312 14.703125 -5.5 C 15.410156 -6.300781 15.765625 -7.382812 15.765625 -8.75 L 15.765625 -10.546875 C 15.765625 -11.910156 15.410156 -12.992188 14.703125 -13.796875 C 14.003906 -14.597656 12.992188 -15 11.671875 -15 Z M 11.671875 -15 "/></g></g></g><g fill="#45a049" fill-opacity="1"><g transform="translate(276.097471, 169.51319)"><g/></g></g><g fill="#45a049" fill-opacity="1"><g transform="translate(285.431683, 169.51319)"><g><path d="M 10.1875 -19.625 C 12.65625 -19.625 14.679688 -19.125 16.265625 -18.125 C 17.859375 -17.125 18.671875 -15.644531 18.703125 -13.6875 L 18.703125 -13.34375 L 12.90625 -13.34375 L 12.90625 -13.46875 C 12.90625 -14.019531 12.695312 -14.484375 12.28125 -14.859375 C 11.875 -15.234375 11.25 -15.421875 10.40625 -15.421875 C 9.582031 -15.421875 8.953125 -15.300781 8.515625 -15.0625 C 8.078125 -14.820312 7.859375 -14.519531 7.859375 -14.15625 C 7.859375 -13.65625 8.15625 -13.28125 8.75 -13.03125 C 9.34375 -12.789062 10.304688 -12.539062 11.640625 -12.28125 C 13.191406 -11.96875 14.46875 -11.632812 15.46875 -11.28125 C 16.46875 -10.9375 17.34375 -10.367188 18.09375 -9.578125 C 18.84375 -8.796875 19.222656 -7.734375 19.234375 -6.390625 C 19.234375 -4.109375 18.460938 -2.414062 16.921875 -1.3125 C 15.378906 -0.207031 13.316406 0.34375 10.734375 0.34375 C 7.722656 0.34375 5.378906 -0.160156 3.703125 -1.171875 C 2.035156 -2.179688 1.203125 -3.96875 1.203125 -6.53125 L 7.0625 -6.53125 C 7.0625 -5.5625 7.3125 -4.910156 7.8125 -4.578125 C 8.320312 -4.253906 9.113281 -4.09375 10.1875 -4.09375 C 10.96875 -4.09375 11.613281 -4.175781 12.125 -4.34375 C 12.644531 -4.507812 12.90625 -4.859375 12.90625 -5.390625 C 12.90625 -5.859375 12.617188 -6.207031 12.046875 -6.4375 C 11.472656 -6.664062 10.539062 -6.914062 9.25 -7.1875 C 7.6875 -7.519531 6.390625 -7.867188 5.359375 -8.234375 C 4.328125 -8.597656 3.425781 -9.195312 2.65625 -10.03125 C 1.894531 -10.875 1.515625 -12.019531 1.515625 -13.46875 C 1.515625 -15.570312 2.332031 -17.125 3.96875 -18.125 C 5.601562 -19.125 7.675781 -19.625 10.1875 -19.625 Z M 10.1875 -19.625 "/></g></g></g><g fill="#45a049" fill-opacity="1"><g transform="translate(305.669812, 169.51319)"><g><path d="M 13.1875 -14.359375 L 13.1875 0 L 6.984375 0 L 6.984375 -14.359375 L 0.640625 -14.359375 L 0.640625 -19.296875 L 19.5 -19.296875 L 19.5 -14.359375 Z M 13.1875 -14.359375 "/></g></g></g><g fill="#45a049" fill-opacity="1"><g transform="translate(325.907941, 169.51319)"><g><path d="M 21.28125 -7.765625 C 21.28125 -5.128906 20.445312 -3.117188 18.78125 -1.734375 C 17.125 -0.347656 14.765625 0.34375 11.703125 0.34375 C 8.628906 0.34375 6.253906 -0.347656 4.578125 -1.734375 C 2.910156 -3.117188 2.078125 -5.128906 2.078125 -7.765625 L 2.078125 -19.296875 L 8.28125 -19.296875 L 8.28125 -7.859375 C 8.28125 -6.765625 8.566406 -5.894531 9.140625 -5.25 C 9.722656 -4.613281 10.566406 -4.296875 11.671875 -4.296875 C 12.773438 -4.296875 13.617188 -4.617188 14.203125 -5.265625 C 14.796875 -5.921875 15.09375 -6.785156 15.09375 -7.859375 L 15.09375 -19.296875 L 21.28125 -19.296875 Z M 21.28125 -7.765625 "/></g></g></g><g fill="#45a049" fill-opacity="1"><g transform="translate(349.257477, 169.51319)"><g><path d="M 10.4375 -19.296875 C 17.1875 -19.296875 20.5625 -16.078125 20.5625 -9.640625 C 20.5625 -3.210938 17.1875 0 10.4375 0 L 2.078125 0 L 2.078125 -19.296875 Z M 8.28125 -4.625 L 10.328125 -4.625 C 12.921875 -4.625 14.21875 -6.019531 14.21875 -8.8125 L 14.21875 -10.484375 C 14.21875 -13.273438 12.921875 -14.671875 10.328125 -14.671875 L 8.28125 -14.671875 Z M 8.28125 -4.625 "/></g></g></g><g fill="#45a049" fill-opacity="1"><g transform="translate(371.065322, 169.51319)"><g><path d="M 2.078125 -19.296875 L 18.765625 -19.296875 L 18.765625 -14.671875 L 8.28125 -14.671875 L 8.28125 -12 L 17.25 -12 L 17.25 -7.578125 L 8.28125 -7.578125 L 8.28125 -4.625 L 18.953125 -4.625 L 18.953125 0 L 2.078125 0 Z M 2.078125 -19.296875 "/></g></g></g><g fill="#45a049" fill-opacity="1"><g transform="translate(391.303451, 169.51319)"><g><path d="M 15.875 0 L 7.765625 -9.375 L 7.765625 0 L 2.078125 0 L 2.078125 -19.296875 L 7.484375 -19.296875 L 15.59375 -9.78125 L 15.59375 -19.296875 L 21.28125 -19.296875 L 21.28125 0 Z M 15.875 0 "/></g></g></g><g fill="#45a049" fill-opacity="1"><g transform="translate(414.652987, 169.51319)"><g><path d="M 13.1875 -14.359375 L 13.1875 0 L 6.984375 0 L 6.984375 -14.359375 L 0.640625 -14.359375 L 0.640625 -19.296875 L 19.5 -19.296875 L 19.5 -14.359375 Z M 13.1875 -14.359375 "/></g></g></g></svg>