<svg xmlns="http://www.w3.org/2000/svg" xmlns:xlink="http://www.w3.org/1999/xlink" width="480" zoomAndPan="magnify" viewBox="0 0 360 359.999987" height="480" preserveAspectRatio="xMidYMid meet" version="1.0"><defs><clipPath id="87241d389f"><path d="M 115.109375 108 L 244.859375 108 L 244.859375 252 L 115.109375 252 Z M 115.109375 108 " clip-rule="nonzero"/></clipPath></defs><g clip-path="url(#87241d389f)"><path fill="#32be8f" d="M 233.542969 127.734375 C 204.488281 124.902344 188.050781 111.917969 187.972656 111.855469 C 183.382812 108.015625 176.695312 108.003906 172.085938 111.796875 C 171.925781 111.925781 155.523438 124.902344 126.449219 127.734375 C 120.042969 128.355469 115.210938 133.679688 115.210938 140.117188 C 115.210938 223.957031 172.589844 249.902344 175.046875 250.972656 C 176.617188 251.65625 178.285156 252 179.996094 252 C 181.71875 252 183.386719 251.648438 184.960938 250.964844 C 187.40625 249.902344 244.785156 223.957031 244.785156 140.117188 C 244.785156 133.679688 239.953125 128.355469 233.542969 127.734375 Z M 208.683594 214.816406 L 208.035156 209.386719 C 207.230469 201.839844 202.238281 195.636719 195.636719 192.671875 C 191.050781 195.367188 185.660156 196.984375 179.996094 196.984375 C 174.335938 196.984375 168.945312 195.367188 164.359375 192.671875 C 157.753906 195.636719 152.902344 201.839844 151.960938 209.386719 L 151.300781 214.925781 C 139.246094 199.671875 127.953125 176.078125 127.707031 140.691406 C 161.171875 137.429688 179.785156 122.324219 179.707031 121.914062 C 180.625 122.652344 199.183594 137.328125 231.765625 140.636719 C 231.65625 175.992188 220.554688 199.5625 208.683594 214.816406 Z M 208.683594 214.816406 " fill-opacity="1" fill-rule="nonzero"/></g><path fill="#32be8f" d="M 160.347656 166.578125 C 160.347656 177.441406 169.148438 186.25 180.011719 186.25 C 190.871094 186.25 199.679688 177.441406 199.679688 166.578125 C 199.679688 155.722656 190.871094 146.914062 180.011719 146.914062 C 169.148438 146.914062 160.347656 155.722656 160.347656 166.578125 Z M 160.347656 166.578125 " fill-opacity="1" fill-rule="nonzero"/></svg>