<svg xmlns="http://www.w3.org/2000/svg" xmlns:xlink="http://www.w3.org/1999/xlink" width="480" zoomAndPan="magnify" viewBox="0 0 360 359.999987" height="480" preserveAspectRatio="xMidYMid meet" version="1.0"><path fill="#32be8f" d="M 179.566406 160.941406 L 148.988281 150.503906 C 148.609375 150.375 148.292969 150.074219 148.152344 149.667969 C 147.914062 148.96875 148.289062 148.210938 148.988281 147.972656 L 179.566406 137.535156 C 179.835938 137.445312 180.132812 137.4375 180.421875 137.535156 L 211.011719 147.972656 C 211.390625 148.101562 211.710938 148.402344 211.847656 148.808594 C 212.085938 149.507812 211.710938 150.265625 211.011719 150.503906 L 180.421875 160.941406 C 180.15625 161.03125 179.855469 161.039062 179.566406 160.941406 " fill-opacity="1" fill-rule="nonzero"/><path fill="#32be8f" d="M 148.84375 149.492188 C 148.84375 148.753906 149.445312 148.152344 150.183594 148.152344 C 150.921875 148.152344 151.519531 148.753906 151.519531 149.492188 L 151.519531 168.851562 C 151.519531 169.589844 150.921875 170.1875 150.183594 170.1875 C 149.445312 170.1875 148.84375 169.589844 148.84375 168.851562 L 148.84375 149.492188 " fill-opacity="1" fill-rule="nonzero"/><path fill="#32be8f" d="M 151.464844 168.46875 L 154.609375 179.011719 C 154.660156 179.15625 154.6875 179.308594 154.6875 179.46875 C 154.6875 180.207031 154.089844 180.804688 153.351562 180.804688 L 147.015625 180.804688 C 146.890625 180.804688 146.761719 180.785156 146.636719 180.75 C 145.925781 180.539062 145.523438 179.792969 145.734375 179.085938 L 148.898438 168.484375 C 149.019531 168.058594 149.347656 167.703125 149.800781 167.570312 C 150.507812 167.359375 151.253906 167.761719 151.464844 168.46875 " fill-opacity="1" fill-rule="nonzero"/><path fill="#32be8f" d="M 143.355469 221.683594 C 143.820312 218.253906 144.527344 214.6875 145.84375 211.472656 C 146.875 208.960938 148.261719 206.738281 150.214844 204.84375 C 152.269531 202.84375 154.742188 201.410156 157.328125 200.203125 C 158.820312 199.511719 160.351562 198.890625 161.886719 198.300781 C 163.644531 197.625 165.417969 196.984375 167.191406 196.34375 C 167.425781 196.257812 167.660156 196.171875 167.898438 196.089844 L 168.457031 195.886719 L 168.78125 196.382812 C 168.789062 196.394531 168.796875 196.40625 168.804688 196.414062 L 179.386719 211.441406 C 179.625 211.78125 180.09375 211.863281 180.429688 211.625 C 180.507812 211.570312 180.574219 211.5 180.628906 211.421875 L 191.207031 196.398438 C 191.210938 196.394531 191.214844 196.386719 191.21875 196.382812 L 191.542969 195.890625 L 192.101562 196.089844 C 192.765625 196.328125 193.433594 196.570312 194.097656 196.804688 C 197.039062 197.855469 200.039062 198.894531 202.878906 200.191406 C 205.246094 201.269531 207.515625 202.554688 209.441406 204.320312 C 211.496094 206.210938 212.945312 208.449219 214.023438 211.011719 C 215.425781 214.351562 216.164062 218.109375 216.644531 221.683594 L 216.761719 222.535156 L 143.238281 222.535156 L 143.355469 221.683594 " fill-opacity="1" fill-rule="evenodd"/><path fill="#32be8f" d="M 198.785156 162.261719 C 198.570312 167.640625 196.558594 178.175781 192.304688 185.820312 C 189.269531 191.277344 185.1875 195.339844 180.015625 195.34375 C 174.847656 195.351562 170.75 191.289062 167.695312 185.816406 C 163.464844 178.230469 161.425781 167.78125 161.210938 162.300781 L 163.875 162.199219 C 164.082031 167.394531 166.007812 177.308594 170.027344 184.519531 C 172.640625 189.207031 176.003906 192.683594 180.015625 192.679688 C 184.027344 192.675781 187.375 189.199219 189.972656 184.523438 C 194.015625 177.257812 195.917969 167.257812 196.121094 162.15625 L 198.785156 162.261719 " fill-opacity="1" fill-rule="nonzero"/><path fill="#32be8f" d="M 161.210938 162.082031 C 161.214844 160.714844 161.242188 159.34375 161.269531 157.976562 C 161.28125 157.359375 161.292969 156.738281 161.304688 156.121094 L 179.132812 162.207031 C 179.695312 162.398438 180.296875 162.398438 180.855469 162.207031 L 198.695312 156.117188 C 198.707031 156.734375 198.71875 157.351562 198.730469 157.964844 C 198.757812 159.296875 198.785156 160.628906 198.789062 161.957031 L 198.789062 162.285156 L 198.53125 162.488281 C 197.238281 163.496094 195.773438 164.382812 194.316406 165.125 C 191.792969 166.410156 189.082031 167.351562 186.304688 167.898438 C 177.523438 169.625 169.046875 167.285156 161.53125 162.65625 L 161.210938 162.457031 L 161.210938 162.082031 " fill-opacity="1" fill-rule="evenodd"/><path fill="#32be8f" d="M 180 108 C 219.765625 108 252 140.234375 252 180 C 252 219.765625 219.765625 252 180 252 C 140.234375 252 108 219.765625 108 180 C 108 140.234375 140.234375 108 180 108 Z M 180 115.976562 C 144.640625 115.976562 115.976562 144.640625 115.976562 180 C 115.976562 215.359375 144.640625 244.023438 180 244.023438 C 215.359375 244.023438 244.023438 215.359375 244.023438 180 C 244.023438 144.640625 215.359375 115.976562 180 115.976562 " fill-opacity="1" fill-rule="evenodd"/></svg>